<svg version="1.0" xmlns="http://www.w3.org/2000/svg" width="683.000000pt" height="683.000000pt" viewBox="0 0 683.000000 683.000000" preserveAspectRatio="xMidYMid meet">

<g transform="translate(0.000000,683.000000) scale(0.100000,-0.100000)" fill="#3d4047" stroke="none">
<path d="M3322 6318 c-46 -10 -106 -61 -124 -106 -7 -18 -13 -237 -18 -620 -4 -326 -10 -596 -13 -599 -4 -3 -79 65 -169 151 -216 207 -221 210 -311 210 -78 1 -119 -15 -170 -63 -58 -53 -84 -140 -66 -221 9 -44 23 -63 112 -158 173 -184 405 -418 579 -582 152 -143 171 -159 219 -170 40 -10 63 -10 105 -1 49 11 66 24 201 150 181 168 642 639 680 694 25 36 28 49 28 123 0 76 -2 85 -31 126 -43 59 -108 98 -177 105 -92 9 -140 -21 -333 -210 -91 -88 -167 -157 -171 -154 -3 4 -9 273 -13 599 -5 372 -11 602 -18 618 -6 14 -27 42 -47 62 -52 53 -152 71 -263 46z" fill="#3d4047"/>
<path d="M589 3616 c-71 -56 -84 -86 -84 -196 0 -117 12 -148 78 -200 l50 -40 2782 0 2782 0 45 34 c25 19 53 52 63 73 20 42 31 152 21 208 -9 45 -68 112 -121 136 -38 18 -152 19 -2806 19 l-2766 0 -44 -34z" fill="#3d4047"/>
<path d="M3362 2670 c-18 -4 -49 -19 -70 -33 -95 -64 -792 -770 -829 -840 -35 -66 -16 -180 40 -243 48 -56 101 -78 183 -79 92 0 111 13 315 212 88 86 162 153 165 150 4 -3 10 -273 13 -599 7 -544 9 -596 26 -631 43 -90 154 -126 297 -96 60 13 120 66 132 115 4 16 11 293 15 617 4 323 11 590 14 594 4 3 79 -65 167 -151 206 -201 222 -211 314 -210 134 1 210 66 235 202 18 96 9 110 -218 349 -232 243 -608 606 -649 627 -36 18 -109 26 -150 16z" fill="#3d4047"/>
</g>
</svg>