<svg version="1.0" xmlns="http://www.w3.org/2000/svg" width="512.000000pt" height="512.000000pt" viewBox="0 0 512.000000 512.000000" preserveAspectRatio="xMidYMid meet">

<g transform="translate(0.000000,512.000000) scale(0.100000,-0.100000)" fill="#3d4047" stroke="none">
<path d="M2475 4736 c-41 -18 -83 -69 -90 -109 -3 -18 -4 -960 -3 -2094 l3 -2062 21 -27 c42 -57 69 -69 154 -69 85 0 112 12 154 69 l21 27 0 2089 0 2089 -21 27 c-39 53 -70 68 -142 71 -42 2 -79 -2 -97 -11z" fill="#3d4047"/>
<path d="M1205 3273 c-66 -35 -105 -95 -105 -163 0 -66 22 -99 154 -230 69 -69 126 -128 126 -132 0 -4 -204 -9 -454 -10 -441 -3 -455 -4 -482 -24 -57 -42 -69 -69 -69 -154 0 -85 12 -112 69 -154 27 -20 41 -21 482 -24 250 -1 454 -6 454 -10 0 -4 -57 -63 -126 -132 -69 -69 -132 -139 -140 -157 -28 -65 -9 -160 42 -204 56 -49 138 -63 197 -33 44 22 614 590 638 636 10 21 19 56 19 78 0 22 -9 57 -19 78 -24 46 -594 614 -638 636 -40 20 -109 20 -148 -1z" fill="#3d4047"/>
<path d="M3765 3274 c-44 -23 -613 -592 -636 -636 -24 -47 -24 -109 0 -156 24 -46 594 -614 638 -636 59 -30 141 -16 197 33 51 44 70 139 42 204 -8 18 -71 88 -140 157 -69 69 -126 128 -126 132 0 4 204 9 454 10 441 3 455 4 482 24 57 42 69 69 69 154 0 85 -12 112 -69 154 -27 20 -41 21 -482 24 -250 1 -454 6 -454 10 0 4 57 63 126 132 69 69 132 139 140 157 28 65 9 160 -42 204 -56 49 -141 63 -199 33z" fill="#3d4047"/>
</g>
</svg>