<svg width="17" height="15" viewBox="0 0 17 15" fill="none" xmlns="http://www.w3.org/2000/svg">
<path d="M0.701172 1.95117C0.559896 1.95117 0.439128 1.90332 0.338867 1.80762C0.243164 1.70736 0.195312 1.58659 0.195312 1.44531C0.195312 1.30859 0.243164 1.19238 0.338867 1.09668C0.439128 1.00098 0.559896 0.953125 0.701172 0.953125H6.21777C5.94434 1.03971 5.70964 1.16732 5.51367 1.33594C5.32227 1.50456 5.17871 1.70964 5.08301 1.95117H0.701172ZM0.701172 4.50781C0.559896 4.50781 0.439128 4.45996 0.338867 4.36426C0.243164 4.26855 0.195312 4.15007 0.195312 4.00879C0.195312 3.87207 0.243164 3.75586 0.338867 3.66016C0.439128 3.5599 0.559896 3.50977 0.701172 3.50977H5.11719C5.14909 3.60547 5.18099 3.70345 5.21289 3.80371C5.24935 3.90397 5.28809 4.01107 5.3291 4.125C5.37012 4.23893 5.41569 4.36654 5.46582 4.50781H0.701172ZM0.701172 7.07129C0.564453 7.07129 0.445964 7.02344 0.345703 6.92773C0.245443 6.82747 0.195312 6.70898 0.195312 6.57227C0.195312 6.43555 0.245443 6.31934 0.345703 6.22363C0.445964 6.12337 0.564453 6.07324 0.701172 6.07324H4.38574C4.52702 6.07324 4.64551 6.12337 4.74121 6.22363C4.83691 6.31934 4.88477 6.43555 4.88477 6.57227C4.88477 6.70898 4.83691 6.82747 4.74121 6.92773C4.64551 7.02344 4.52702 7.07129 4.38574 7.07129H0.701172ZM13.6143 14.4541C12.5342 14.8415 11.4655 14.8916 10.4082 14.6045C9.35091 14.3174 8.35286 13.5882 7.41406 12.417L5.15137 9.61426C5.11491 9.56413 5.07845 9.50944 5.04199 9.4502C5.00553 9.38639 4.97135 9.31575 4.93945 9.23828C4.86198 9.0332 4.87109 8.83268 4.9668 8.63672C5.0625 8.44076 5.22884 8.29948 5.46582 8.21289C5.63444 8.14909 5.79395 8.14225 5.94434 8.19238C6.09473 8.23796 6.23828 8.33366 6.375 8.47949L8.11816 10.3594C8.2321 10.4779 8.34147 10.5212 8.44629 10.4893C8.49642 10.4665 8.53516 10.4277 8.5625 10.373C8.58984 10.3138 8.58757 10.2409 8.55566 10.1543L5.95801 3.01758C5.86686 2.76693 5.86458 2.53906 5.95117 2.33398C6.04232 2.12435 6.2041 1.97624 6.43652 1.88965C6.65072 1.81217 6.85807 1.82357 7.05859 1.92383C7.26367 2.02409 7.41406 2.19954 7.50977 2.4502L9.29395 7.36523C9.33952 7.49284 9.39876 7.57715 9.47168 7.61816C9.54915 7.65918 9.62891 7.66602 9.71094 7.63867C9.7793 7.61133 9.82715 7.55892 9.85449 7.48145C9.88639 7.39941 9.88184 7.2946 9.84082 7.16699L9.29395 5.68359C9.20736 5.4375 9.30306 5.26432 9.58105 5.16406C9.88184 5.05469 10.1667 5.06152 10.4355 5.18457C10.709 5.30306 10.9141 5.55371 11.0508 5.93652L11.3037 6.63379C11.3538 6.76139 11.4154 6.8457 11.4883 6.88672C11.5612 6.92773 11.6387 6.93457 11.7207 6.90723C11.7891 6.87988 11.8392 6.82747 11.8711 6.75C11.903 6.66797 11.8962 6.56315 11.8506 6.43555L11.5771 5.68359C11.486 5.43294 11.5794 5.25749 11.8574 5.15723C12.1628 5.04785 12.4544 5.0638 12.7324 5.20508C13.0104 5.3418 13.2132 5.58561 13.3408 5.93652L13.4707 6.29199C13.5163 6.4196 13.5755 6.50391 13.6484 6.54492C13.7259 6.58138 13.8034 6.58822 13.8809 6.56543C13.9538 6.53809 14.0062 6.48568 14.0381 6.4082C14.07 6.32617 14.0609 6.22135 14.0107 6.09375L13.8125 5.54004C13.7533 5.38053 13.8079 5.27116 13.9766 5.21191C14.1999 5.12533 14.43 5.1276 14.667 5.21875C14.9085 5.3099 15.1364 5.47624 15.3506 5.71777C15.5648 5.95931 15.7448 6.27376 15.8906 6.66113L16.3486 7.93945C16.7223 8.96029 16.8659 9.89909 16.7793 10.7559C16.6927 11.6081 16.3828 12.3509 15.8496 12.9844C15.3164 13.6133 14.5713 14.1032 13.6143 14.4541Z" fill="#743EE4"/>
</svg>
