<svg width="16" height="16" viewBox="0 0 16 16" fill="none" xmlns="http://www.w3.org/2000/svg">
<path fill-rule="evenodd" clip-rule="evenodd" d="M12.2578 8.0625C13.9147 8.0625 15.2578 6.71935 15.2578 5.0625C15.2578 3.40565 13.9147 2.0625 12.2578 2.0625C10.601 2.0625 9.25781 3.40565 9.25781 5.0625C9.25781 6.71935 10.601 8.0625 12.2578 8.0625ZM10.9046 3.70895C11.0999 3.51368 11.4165 3.51368 11.6117 3.70895L12.2601 4.35727L12.9046 3.71278C13.0998 3.51752 13.4164 3.51752 13.6117 3.71278C13.8069 3.90804 13.8069 4.22462 13.6117 4.41988L12.9672 5.06438L13.612 5.70925C13.8073 5.90451 13.8073 6.22109 13.612 6.41636C13.4168 6.61162 13.1002 6.61162 12.9049 6.41636L12.2601 5.77148L11.6114 6.42019C11.4161 6.61545 11.0995 6.61545 10.9043 6.42019C10.709 6.22492 10.709 5.90834 10.9043 5.71308L11.553 5.06438L10.9046 4.41605C10.7094 4.22079 10.7094 3.90421 10.9046 3.70895Z" fill="#C10015"/>
<path fill-rule="evenodd" clip-rule="evenodd" d="M8.38034 4.07617H7.74219C7.54297 4.07617 7.37891 4.05273 7.25 4.00586C7.12109 3.95508 6.98438 3.86914 6.83984 3.74805L6.50586 3.47266C6.32617 3.3125 6.15234 3.20508 5.98438 3.15039C5.82031 3.0918 5.59961 3.0625 5.32227 3.0625H3.74609C3.26953 3.0625 2.90234 3.19531 2.64453 3.46094C2.38672 3.72656 2.25781 4.12891 2.25781 4.66797V6.20312H8.42279C8.31545 5.84166 8.25781 5.45881 8.25781 5.0625C8.25781 4.72212 8.30033 4.39167 8.38034 4.07617ZM12.2578 9.0625C13.2083 9.0625 14.0813 8.73101 14.7676 8.17733V11.4473C14.7676 12.002 14.6328 12.4199 14.3633 12.7012C14.0938 12.9824 13.7129 13.123 13.2207 13.123H3.95703C3.39062 13.123 2.96484 12.9824 2.67969 12.7012C2.39844 12.4238 2.25781 12.0059 2.25781 11.4473V6.87109H8.68908C9.3494 8.17146 10.6995 9.0625 12.2578 9.0625Z" fill="#C10015"/>
</svg>
