<svg width="25" height="24" viewBox="0 0 25 24" fill="none" xmlns="http://www.w3.org/2000/svg">
<rect width="2.63915" height="11.8762" transform="matrix(-0.707112 -0.707102 0.707112 -0.707102 2.34668 24)" fill="white"/>
<path d="M10.7393 15.2645L9.20686 13.7321L12.704 10.2351C13.1271 9.81193 13.8132 9.81193 14.2364 10.2351C14.6595 10.6582 14.6595 11.3443 14.2364 11.7675L10.7393 15.2645Z" stroke="white" stroke-width="0.465599"/>
<path d="M19.4632 4.25038C19.8503 4.03854 20.2823 4.44579 20.0937 4.8447L19.2111 6.71108C19.1267 6.88948 19.1668 7.10191 19.3104 7.23727L20.8128 8.6534C21.1339 8.95608 20.88 9.49281 20.4423 9.43668L18.3946 9.17404C18.1988 9.14893 18.0092 9.25272 17.9248 9.43112L17.0422 11.2975C16.8536 11.6964 16.2647 11.6209 16.1828 11.1873L15.7998 9.15857C15.7632 8.96466 15.6059 8.81637 15.4101 8.79127L13.3623 8.52862C12.9246 8.47249 12.8145 7.88907 13.2016 7.67722L15.0127 6.68606C15.1858 6.59132 15.2782 6.39588 15.2416 6.20197L14.8586 4.17327C14.7767 3.73966 15.2975 3.45462 15.6186 3.7573L17.121 5.17343C17.2646 5.30879 17.479 5.33629 17.6521 5.24155L19.4632 4.25038Z" fill="white"/>
<path d="M23.8036 6.77014C23.5987 6.98753 23.2564 6.99764 23.039 6.79272C22.8216 6.5878 22.8115 6.24546 23.0164 6.02807C23.2213 5.81068 23.5637 5.80058 23.7811 6.00549C23.9984 6.21041 24.0086 6.55275 23.8036 6.77014Z" stroke="white" stroke-width="0.455518"/>
<path d="M20.1097 13.1267C19.832 13.4213 19.368 13.435 19.0734 13.1573C18.7788 12.8796 18.7651 12.4156 19.0428 12.121C19.3205 11.8264 19.7845 11.8127 20.0791 12.0904C20.3737 12.3681 20.3874 12.8321 20.1097 13.1267Z" stroke="white" stroke-width="0.455518"/>
<ellipse cx="0.655697" cy="0.655696" rx="0.655697" ry="0.655696" transform="matrix(0.727673 0.685924 -0.685935 0.727663 13.0039 3.78125)" fill="white"/>
<ellipse cx="0.655697" cy="0.655696" rx="0.655697" ry="0.655696" transform="matrix(0.727673 0.685924 -0.685935 0.727663 7.92285 5.63281)" fill="white"/>
<ellipse cx="0.655697" cy="0.655696" rx="0.655697" ry="0.655696" transform="matrix(0.727673 0.685924 -0.685935 0.727663 16.1533 13.9844)" fill="white"/>
</svg>
