<svg width="19" height="18" viewBox="0 0 19 18" fill="none" xmlns="http://www.w3.org/2000/svg">
<rect width="1.97864" height="8.9039" transform="matrix(-0.707084 -0.70713 0.707084 -0.70713 1.56641 17.9922)" fill="#743EE4"/>
<path d="M7.85938 11.4407L6.71054 10.2918L9.33232 7.66981C9.64956 7.35254 10.1639 7.35254 10.4812 7.66981C10.7984 7.98707 10.7984 8.50145 10.4812 8.81872L7.85938 11.4407Z" fill="#743EE4" stroke="white" stroke-width="0.349072"/>
<path d="M14.402 3.19261C14.6922 3.03378 15.0161 3.33912 14.8747 3.6382L14.213 5.03753C14.1498 5.17128 14.1799 5.33056 14.2875 5.43205L15.4138 6.4938C15.6545 6.72073 15.4642 7.12315 15.1361 7.08106L13.6009 6.88415C13.4541 6.86532 13.312 6.94314 13.2487 7.07689L12.587 8.47622C12.4456 8.77531 12.0041 8.71868 11.9427 8.39358L11.6556 6.87255C11.6281 6.72716 11.5102 6.61598 11.3635 6.59716L9.82824 6.40024C9.5001 6.35816 9.41752 5.92074 9.70773 5.7619L11.0655 5.01877C11.1953 4.94774 11.2646 4.80121 11.2371 4.65582L10.95 3.13479C10.8886 2.80969 11.2791 2.59598 11.5198 2.82291L12.6461 3.88466C12.7537 3.98615 12.9145 4.00677 13.0443 3.93574L14.402 3.19261Z" fill="#743EE4"/>
<path d="M17.6551 5.08506C17.5015 5.24805 17.2448 5.25563 17.0818 5.10199C16.9188 4.94835 16.9113 4.69168 17.0649 4.52869C17.2185 4.3657 17.4752 4.35813 17.6382 4.51176C17.8011 4.6654 17.8087 4.92207 17.6551 5.08506Z" fill="#743EE4" stroke="white" stroke-width="0.341514"/>
<path d="M14.887 9.8485C14.6788 10.0694 14.331 10.0797 14.1101 9.87144C13.8892 9.66322 13.879 9.31536 14.0872 9.09447C14.2954 8.87358 14.6432 8.86331 14.8641 9.07153C15.085 9.27975 15.0952 9.62761 14.887 9.8485Z" fill="#743EE4" stroke="white" stroke-width="0.341514"/>
<ellipse cx="0.491592" cy="0.491594" rx="0.491592" ry="0.491594" transform="matrix(0.727646 0.685953 -0.685906 0.72769 9.55859 2.84375)" fill="#743EE4"/>
<ellipse cx="0.491592" cy="0.491594" rx="0.491592" ry="0.491594" transform="matrix(0.727646 0.685953 -0.685906 0.72769 5.75 4.22656)" fill="#743EE4"/>
<ellipse cx="0.491592" cy="0.491594" rx="0.491592" ry="0.491594" transform="matrix(0.727646 0.685953 -0.685906 0.72769 11.918 10.4922)" fill="#743EE4"/>
</svg>
