<svg width="64" height="64" viewBox="0 0 64 64" fill="none" xmlns="http://www.w3.org/2000/svg">
<path d="M23.2635 34.5V24.4217C23.2635 23.5675 22.5711 22.875 21.7169 22.875H16.2732C15.419 22.875 14.7266 23.5675 14.7266 24.4217V33.7018C14.7266 34.556 15.419 35.2485 16.2732 35.2485H22.5" stroke="#743EE4" stroke-width="2.27653"/>
<path d="M35.0917 34.6924V17.4607C35.0917 16.6065 34.3992 15.9141 33.545 15.9141H28.1014C27.2472 15.9141 26.5547 16.6065 26.5547 17.4607L26.5547 31.3725" stroke="#743EE4" stroke-width="2.27653"/>
<path d="M47.0292 26.0976V12.0467C47.0292 11.1925 46.3367 10.5 45.4825 10.5H40.0389C39.1847 10.5 38.4922 11.1925 38.4922 12.0467V34.6881" stroke="#743EE4" stroke-width="2.27653"/>
<rect x="20.6758" y="35.9453" width="17.5893" height="10.8827" rx="2.90205" transform="rotate(57.0593 20.6758 35.9453)" stroke="#743EE4" stroke-width="2.27653"/>
<path d="M21.4211 37.0613C24.5521 33.6657 29.4514 27.0526 32.3434 27.1237C36.7064 27.2309 34.4677 31.6387 33.4728 34.1059C32.4779 36.573 35.0895 36.1739 39.4631 34.2514C43.8366 32.3289 45.0097 27.4682 47.0442 26.6055C49.0788 25.7429 50.6307 27.4711 50.7422 28.3101C50.8536 29.1492 47.9811 37.3891 43.4136 40.3486C39.7597 42.7161 32.4015 45.9041 28.5353 47.4978" stroke="#743EE4" stroke-width="2.27653" stroke-linecap="round" stroke-linejoin="round"/>
<ellipse cx="22.5075" cy="48.7317" rx="1.7893" ry="1.78806" transform="rotate(57.0593 22.5075 48.7317)" stroke="#743EE4" stroke-width="2.27653"/>
</svg>
