<?xml version="1.0" encoding="utf-8"?>
<!-- Generator: Adobe Illustrator 27.0.0, SVG Export Plug-In . SVG Version: 6.00 Build 0)  -->
<svg version="1.1" id="Layer_1" xmlns="http://www.w3.org/2000/svg" xmlns:xlink="http://www.w3.org/1999/xlink" x="0px" y="0px"
	 viewBox="0 0 64 64" style="enable-background:new 0 0 64 64;" xml:space="preserve">
<style type="text/css">
	.st0{fill:#FFFFFF;filter:url(#Adobe_OpacityMaskFilter);}
	
		.st1{mask:url(#path-1-inside-1_12021_5790_00000119076435825366857050000015238187977872859295_);fill:none;stroke:#743EE4;stroke-width:4.8;}
	.st2{fill:none;stroke:#743EE4;stroke-width:2.4;}
	.st3{fill:none;stroke:#743EE4;stroke-width:2.4;stroke-linecap:round;}
</style>
<defs>
	<filter id="Adobe_OpacityMaskFilter" filterUnits="userSpaceOnUse" x="17.5" y="17.2" width="26.9" height="26.9">
		<feColorMatrix  type="matrix" values="1 0 0 0 0  0 1 0 0 0  0 0 1 0 0  0 0 0 1 0"/>
	</filter>
</defs>
<mask maskUnits="userSpaceOnUse" x="17.5" y="17.2" width="26.9" height="26.9" id="path-1-inside-1_12021_5790_00000119076435825366857050000015238187977872859295_">
	<path class="st0" d="M20.3,32.1l12.1-12.1c0.6-0.6,1.6-0.6,2.3,0l6.9,6.9c0.6,0.6,0.6,1.6,0,2.3L29.5,41.3c-0.6,0.6-1.6,0.6-2.3,0
		l-6.9-6.9C19.7,33.8,19.7,32.8,20.3,32.1z"/>
</mask>
<path class="st1" d="M20.3,32.1l12.1-12.1c0.6-0.6,1.6-0.6,2.3,0l6.9,6.9c0.6,0.6,0.6,1.6,0,2.3L29.5,41.3c-0.6,0.6-1.6,0.6-2.3,0
	l-6.9-6.9C19.7,33.8,19.7,32.8,20.3,32.1z"/>
<path class="st2" d="M45.9,48.2l-13.1-11l4.7-4.7l11,13.1c0.6,0.7,0.6,1.8-0.1,2.5C47.7,48.7,46.6,48.8,45.9,48.2z"/>
<path class="st3" d="M30.8,22.3c0-2.2-0.8-4.3-2.4-6c-3.2-3.2-8.5-3.2-11.7,0s-3.2,8.5,0,11.7c1.7,1.7,3.8,2.5,6,2.4"/>
<line class="st2" x1="23.1" y1="36.1" x2="35.6" y2="23.6"/>
</svg>
