<svg width="64" height="64" viewBox="0 0 64 64" fill="none" xmlns="http://www.w3.org/2000/svg">
<path d="M9.43359 27.4531C9.43359 26.3486 10.329 25.4531 11.4336 25.4531H18.8925V39.0976H11.4336C10.329 39.0976 9.43359 38.2022 9.43359 37.0976V27.4531Z" stroke="#743EE4" stroke-width="2.4"/>
<path d="M39.1317 36.9844L40.9504 36.9844C43.5494 36.9844 45.6562 34.8775 45.6562 32.2786V32.2786C45.6562 29.6796 43.5494 27.5727 40.9504 27.5727L39.1317 27.5727" stroke="#743EE4" stroke-width="2.4"/>
<path d="M39.6094 19.4354C39.6094 17.9925 38.1279 17.0244 36.8064 17.6037L18.8943 25.4556V39.1001L36.8064 46.9519C38.128 47.5312 39.6094 46.5631 39.6094 45.1202V19.4354Z" stroke="#743EE4" stroke-width="2.4"/>
<path d="M19.3828 39.0938V48.8295C19.3828 49.9341 20.2782 50.8295 21.3828 50.8295H23.3904C24.4949 50.8295 25.3904 49.9341 25.3904 48.8295V42.2029" stroke="#743EE4" stroke-width="2.4"/>
<path d="M46.8594 40.001C51.1269 35.7335 51.1269 28.8144 46.8594 24.5469" stroke="#743EE4" stroke-width="2.4" stroke-linecap="round"/>
<path d="M46.8594 40.001C51.1269 35.7335 51.1269 28.8144 46.8594 24.5469" stroke="#743EE4" stroke-width="2.4" stroke-linecap="round"/>
<path d="M50.1211 43.1338C56.1188 37.1361 56.1188 27.4118 50.1211 21.4141" stroke="#743EE4" stroke-width="2.4" stroke-linecap="round"/>
<path d="M50.1211 43.1338C56.1188 37.1361 56.1188 27.4118 50.1211 21.4141" stroke="#743EE4" stroke-width="2.4" stroke-linecap="round"/>
</svg>
