<svg width="64" height="64" viewBox="0 0 64 64" fill="none" xmlns="http://www.w3.org/2000/svg">
<path d="M42.5687 13.5571C43.351 12.7835 44.6112 12.787 45.3892 13.5649L51.1133 19.2891C51.8968 20.0725 51.894 21.3437 51.1071 22.1237L24.5392 48.4601C24.223 48.7734 23.8114 48.9724 23.3695 49.0254L16.8226 49.811C15.5357 49.9655 14.4441 48.8739 14.5986 47.587L15.3829 41.0512C15.4367 40.6025 15.641 40.1852 15.9623 39.8674L42.5687 13.5571Z" stroke="#743EE4" stroke-width="2.4"/>
<line x1="37.9267" y1="18.2062" x2="46.512" y2="26.7915" stroke="#743EE4" stroke-width="2.4"/>
<path d="M24.2651 31.3965L14.6827 21.5713C13.9183 20.7875 13.9261 19.5348 14.7003 18.7607L19.6765 13.7844C20.4645 12.9965 21.7445 13.0045 22.5225 13.8022L32.0699 23.5916M33.0946 40.2274L43.1092 49.9974C43.8929 50.762 45.1458 50.7543 45.92 49.98L50.8963 45.0038C51.6842 44.2159 51.6762 42.9361 50.8787 42.158L40.8995 32.4225" stroke="#743EE4" stroke-width="2.4"/>
<line x1="27.3516" y1="20.2986" x2="25.1462" y2="22.504" stroke="#743EE4" stroke-width="2.4" stroke-linecap="round"/>
<line x1="45.3047" y1="38.2517" x2="43.0993" y2="40.4571" stroke="#743EE4" stroke-width="2.4" stroke-linecap="round"/>
</svg>
