<svg width="64" height="64" viewBox="0 0 64 64" fill="none" xmlns="http://www.w3.org/2000/svg">
<path d="M10.1615 24.9696C9.34223 24.6273 9.34223 23.4665 10.1615 23.1242L31.6148 14.1608C31.8614 14.0577 32.1391 14.0577 32.3858 14.1608L53.839 23.1242C54.6583 23.4665 54.6583 24.6273 53.839 24.9696L32.3858 33.933C32.1391 34.036 31.8614 34.036 31.6148 33.933L10.1615 24.9696Z" stroke="#743EE4" stroke-width="2.4"/>
<path d="M52.8 35.5C52.8 36.1627 53.3373 36.7 54 36.7C54.6627 36.7 55.2 36.1627 55.2 35.5H52.8ZM55.2 35.5V23.5H52.8V35.5H55.2Z" fill="#743EE4"/>
<path d="M17 28V37.7478C17 40.9364 18.8935 43.8205 21.8191 45.0883L23.2526 45.7095C28.8335 48.1278 35.1665 48.1278 40.7474 45.7095L42.1809 45.0883C45.1065 43.8205 47 40.9364 47 37.7478V28" stroke="#743EE4" stroke-width="2.4"/>
</svg>
