<svg width="60" height="60" viewBox="0 0 60 60" fill="none" xmlns="http://www.w3.org/2000/svg">
<path d="M37.125 48V44.9338C37.125 41.5938 38.3466 38.369 40.5597 35.8673V35.8673C43.7751 32.2325 44.8248 27.1666 43.3184 22.5534L42.4796 19.9843C40.8515 14.9983 36.2014 11.625 30.9563 11.625V11.625C26.0627 11.625 21.649 14.5675 19.7668 19.0847L19.3284 20.1369C19.193 20.4617 19.0308 20.7747 18.8432 21.0725L14.362 28.1897C13.6617 29.302 14.4611 30.75 15.7755 30.75V30.75C16.6179 30.75 17.3284 31.3773 17.4329 32.2131L17.9824 36.6096C18.2067 38.4037 19.7318 39.75 21.5399 39.75V39.75C23.5199 39.75 25.125 41.3551 25.125 43.3351V48" stroke="#743EE4" stroke-width="2.25" stroke-linecap="round" stroke-linejoin="round"/>
<path d="M33 36.75V27.75H37.5L30.375 18.75L23.25 27.75H27.75V36.75" stroke="#743EE4" stroke-width="2.25" stroke-linecap="round" stroke-linejoin="round"/>
</svg>
