<svg width="64" height="64" viewBox="0 0 64 64" fill="none" xmlns="http://www.w3.org/2000/svg">
<path d="M45.8164 44.3287L41.1797 42.7831C41.6949 41.3405 42.4161 37.6518 41.1797 34.437C39.9432 31.2221 36.3369 23.2057 34.6882 19.5994C34.4822 18.7751 33.4518 17.6219 32.5244 18.3629C31.2874 19.3514 32.8335 23.9256 33.7609 26.0887M33.7609 26.0887C34.7501 25.5941 35.6156 27.3252 35.9247 28.2525L37.4703 34.437M33.7609 26.0887C33.0602 26.3527 31.8979 28.0915 32.7802 32.0996C33.1162 33.6258 33.0679 35.2229 32.6443 36.7271C31.8122 39.6822 31.3667 43.8366 33.4518 46.4903C36.172 49.9524 42.8283 51.2301 45.8164 51.4362" stroke="#743EE4" stroke-width="2.05317" stroke-linecap="round" stroke-linejoin="round"/>
<path d="M45.1523 36.0957L50.2853 34.8125" stroke="#743EE4" stroke-width="2.56646" stroke-linecap="round" stroke-linejoin="round"/>
<path d="M44.2971 26.2542L49.8578 24.1155M40.0197 18.9826L45.5804 13.4219M31.4648 14.7052V10" stroke="#743EE4" stroke-width="2.56646" stroke-linecap="round" stroke-linejoin="round"/>
<path d="M16.6836 44.3287L21.3203 42.7831C20.8051 41.3405 20.0839 37.6518 21.3203 34.437C22.5568 31.2221 26.1631 23.2057 27.8118 19.5994C28.0178 18.7751 29.0482 17.6219 29.9756 18.3629C31.2126 19.3514 29.6665 23.9256 28.7391 26.0887M28.7391 26.0887C27.7499 25.5941 26.8844 27.3252 26.5753 28.2525L25.0297 34.437M28.7391 26.0887C29.4398 26.3527 30.6021 28.0915 29.7198 32.0996C29.3838 33.6258 29.4321 35.2229 29.8557 36.7271C30.6878 39.6822 31.1333 43.8366 29.0482 46.4903C26.328 49.9524 19.6717 51.2301 16.6836 51.4362" stroke="#743EE4" stroke-width="2.05317" stroke-linecap="round" stroke-linejoin="round"/>
<path d="M17.3477 36.0957L12.2147 34.8125" stroke="#743EE4" stroke-width="2.56646" stroke-linecap="round" stroke-linejoin="round"/>
<path d="M18.203 26.2542L12.6424 24.1155M22.4805 18.9825L16.9198 13.4219" stroke="#743EE4" stroke-width="2.56646" stroke-linecap="round" stroke-linejoin="round"/>
</svg>
