<svg width="16" height="16" viewBox="0 0 16 16" fill="none" xmlns="http://www.w3.org/2000/svg">
<path d="M7.27532 0.882681C7.58166 0.298192 8.41834 0.29819 8.72468 0.882679L10.5522 4.36957C10.6707 4.59567 10.8879 4.7535 11.1396 4.79633L15.0206 5.45691C15.6711 5.56763 15.9297 6.36337 15.4684 6.83533L12.7169 9.65092C12.5385 9.83349 12.4556 10.0889 12.4926 10.3414L13.0636 14.2366C13.1593 14.8895 12.4825 15.3813 11.8911 15.0885L8.36303 13.3417C8.13426 13.2285 7.86574 13.2285 7.63697 13.3417L4.10893 15.0885C3.51754 15.3813 2.84065 14.8895 2.93637 14.2366L3.50742 10.3414C3.54444 10.0889 3.46146 9.83349 3.28305 9.65092L0.531561 6.83533C0.0703421 6.36337 0.32889 5.56763 0.979436 5.45691L4.8604 4.79633C5.11205 4.7535 5.32929 4.59567 5.44779 4.36957L7.27532 0.882681Z" fill="#FFCC00"/>
</svg>
