<svg width="16" height="17" viewBox="0 0 16 17" fill="none" xmlns="http://www.w3.org/2000/svg">
<path d="M1.15559 15.8859C0.782377 15.5317 0.531079 15.1516 0.401698 14.7454C0.272317 14.3393 0.267341 13.9331 0.38677 13.527C0.511175 13.1208 0.757496 12.7454 1.12573 12.4006C1.33473 12.1975 1.59847 11.9968 1.91695 11.7985C2.2404 11.6001 2.58127 11.4088 2.93956 11.2247C3.29784 11.0358 3.64618 10.8563 3.98456 10.6863C4.32294 10.5163 4.61156 10.3557 4.85041 10.2046L3.17841 8.61066C2.90472 8.35091 2.76788 8.07936 2.76788 7.796C2.76788 7.50792 2.89975 7.23873 3.16349 6.98842L3.76063 6.4217C4.02437 6.16668 4.30552 6.04153 4.60409 6.04625C4.90764 6.05098 5.19626 6.18321 5.46995 6.44296L11.1055 11.7843C11.3742 12.044 11.511 12.3156 11.516 12.599C11.521 12.8823 11.3916 13.1491 11.1279 13.3994L10.5233 13.9803C10.2645 14.2306 9.98087 14.3534 9.67234 14.3487C9.3688 14.3487 9.08267 14.2212 8.81395 13.9662L7.14195 12.3652C6.97774 12.6013 6.80606 12.88 6.62691 13.2011C6.44777 13.5175 6.25868 13.8457 6.05963 14.1858C5.86556 14.5305 5.66402 14.854 5.45502 15.1563C5.251 15.4633 5.03951 15.7159 4.82056 15.9143C4.45232 16.2637 4.05671 16.4952 3.63374 16.6085C3.21076 16.7266 2.78529 16.7242 2.35734 16.6014C1.92939 16.4786 1.52881 16.2401 1.15559 15.8859ZM3.05898 14.965C3.29287 14.965 3.4944 14.8847 3.66359 14.7242C3.83278 14.5683 3.91738 14.3794 3.91738 14.1574C3.91738 13.9307 3.83278 13.7371 3.66359 13.5765C3.4944 13.416 3.29287 13.3357 3.05898 13.3357C2.82013 13.3357 2.6161 13.416 2.44691 13.5765C2.27772 13.7371 2.19313 13.9307 2.19313 14.1574C2.19313 14.3794 2.27772 14.5683 2.44691 14.7242C2.6161 14.8847 2.82013 14.965 3.05898 14.965ZM11.9788 11.4938L5.5222 5.37327C5.65656 5.1088 5.7934 4.81364 5.93274 4.48777C6.07207 4.15719 6.2114 3.77937 6.35074 3.35433C6.49007 2.92457 6.63438 2.42633 6.78367 1.85961C6.89314 1.44874 7.07975 1.14885 7.34349 0.959939C7.60722 0.76631 7.89087 0.678941 8.19442 0.697831C8.50294 0.716722 8.77414 0.83715 9.00802 1.05912L12.6357 4.50194C12.5909 4.9317 12.5013 5.31424 12.367 5.64955C12.2326 5.98013 12.0559 6.28475 11.837 6.56338C11.623 6.84202 11.3767 7.11358 11.098 7.37804C11.0483 7.42527 11.0234 7.47722 11.0234 7.53389C11.0234 7.58584 11.0408 7.62598 11.0756 7.65432C11.1752 7.7535 11.3618 7.77003 11.6355 7.70391C11.9091 7.63779 12.2177 7.51972 12.561 7.34971C12.9044 7.17969 13.2328 6.98134 13.5463 6.75465C13.8648 6.52796 14.1161 6.30128 14.3002 6.07459L14.6809 6.44296C15.0889 6.83966 15.2954 7.25289 15.3004 7.68266C15.3104 8.11242 15.1163 8.51621 14.7182 8.89402L11.9788 11.4938Z" fill="#743EE4"/>
</svg>
