<svg width="32" height="32" viewBox="0 0 32 32" fill="none" xmlns="http://www.w3.org/2000/svg">
<rect width="32" height="32" rx="3.8967" fill="#EFEFF1"/>
<path d="M12.4307 21.1289C12.1937 21.1289 12.0068 21.0651 11.8701 20.9375C11.738 20.8099 11.6719 20.6322 11.6719 20.4043C11.6719 20.2676 11.7015 20.1104 11.7607 19.9326L14.8027 11.7295C15.0033 11.1598 15.3997 10.875 15.9922 10.875C16.3066 10.875 16.5618 10.9456 16.7578 11.0869C16.9583 11.2282 17.111 11.4424 17.2158 11.7295L20.2373 19.8984C20.3011 20.0762 20.333 20.2402 20.333 20.3906C20.333 20.6185 20.2601 20.7985 20.1143 20.9307C19.973 21.0628 19.7816 21.1289 19.54 21.1289C19.3122 21.1289 19.1322 21.0765 19 20.9717C18.8724 20.8714 18.7721 20.6982 18.6992 20.4521L17.9404 18.333H14.0371L13.2783 20.4521C13.2054 20.6982 13.1029 20.8714 12.9707 20.9717C12.8431 21.0765 12.6631 21.1289 12.4307 21.1289ZM14.4336 17.0615H17.5576L16.0127 12.6182H15.9785L14.4336 17.0615Z" fill="#743EE4"/>
</svg>
