<svg width="19" height="12" viewBox="0 0 19 12" fill="none" xmlns="http://www.w3.org/2000/svg">
<path d="M3.13991 10.9922H0.833097L4.34801 0.810369H7.12216L10.6321 10.9922H8.32528L5.77486 3.13707H5.69531L3.13991 10.9922ZM2.99574 6.99006H8.4446V8.67045H2.99574V6.99006ZM13.9954 11.1364C13.5082 11.1364 13.074 11.0518 12.6928 10.8828C12.3117 10.7105 12.0101 10.4569 11.788 10.1222C11.5692 9.78409 11.4599 9.36316 11.4599 8.85938C11.4599 8.43513 11.5378 8.07884 11.6935 7.79048C11.8493 7.50213 12.0614 7.27012 12.3299 7.09446C12.5984 6.9188 12.9033 6.78622 13.2447 6.69673C13.5894 6.60724 13.9506 6.54427 14.3285 6.50781C14.7726 6.46141 15.1306 6.41832 15.4023 6.37855C15.6741 6.33546 15.8713 6.27249 15.994 6.18963C16.1166 6.10677 16.1779 5.98414 16.1779 5.82173V5.7919C16.1779 5.47704 16.0785 5.23343 15.8796 5.06108C15.6841 4.88873 15.4057 4.80256 15.0444 4.80256C14.6632 4.80256 14.36 4.88707 14.1346 5.05611C13.9092 5.22183 13.7601 5.43063 13.6871 5.68253L11.7283 5.52344C11.8278 5.05942 12.0233 4.65838 12.315 4.32031C12.6067 3.97893 12.9828 3.71709 13.4435 3.5348C13.9076 3.34919 14.4445 3.25639 15.0543 3.25639C15.4786 3.25639 15.8846 3.30611 16.2724 3.40554C16.6635 3.50497 17.0098 3.65909 17.3114 3.8679C17.6164 4.0767 17.8567 4.34517 18.0323 4.6733C18.208 4.99811 18.2958 5.38755 18.2958 5.84162V10.9922H16.2873V9.93324H16.2276C16.105 10.1719 15.9409 10.3823 15.7354 10.5646C15.5299 10.7436 15.283 10.8845 14.9947 10.9872C14.7063 11.0866 14.3732 11.1364 13.9954 11.1364ZM14.6019 9.67472C14.9135 9.67472 15.1886 9.6134 15.4272 9.49077C15.6658 9.36482 15.8531 9.19579 15.989 8.98366C16.1249 8.77154 16.1928 8.53125 16.1928 8.26278V7.45241C16.1265 7.4955 16.0354 7.53527 15.9194 7.57173C15.8067 7.60488 15.6791 7.63636 15.5366 7.66619C15.3941 7.69271 15.2515 7.71757 15.109 7.74077C14.9665 7.76065 14.8372 7.77888 14.7212 7.79545C14.4727 7.83191 14.2556 7.88991 14.07 7.96946C13.8844 8.04901 13.7402 8.15672 13.6374 8.29261C13.5347 8.42519 13.4833 8.59091 13.4833 8.78977C13.4833 9.07812 13.5877 9.29853 13.7965 9.45099C14.0086 9.60014 14.2771 9.67472 14.6019 9.67472Z" fill="black"/>
</svg>
