<svg width="16" height="9" viewBox="0 0 16 9" fill="none" xmlns="http://www.w3.org/2000/svg">
<path d="M3.40163 8.14418C2.91442 8.14418 2.48023 8.05966 2.09908 7.89062C1.71792 7.71828 1.41631 7.46473 1.19425 7.12997C0.975497 6.7919 0.866122 6.37098 0.866122 5.86719C0.866122 5.44295 0.94401 5.08665 1.09979 4.7983C1.25556 4.50994 1.46768 4.27794 1.73615 4.10227C2.00462 3.92661 2.30954 3.79403 2.65092 3.70455C2.99562 3.61506 3.35689 3.55208 3.73473 3.51562C4.17886 3.46922 4.53681 3.42614 4.80859 3.38636C5.08037 3.34328 5.27758 3.2803 5.40021 3.19744C5.52285 3.11458 5.58416 2.99195 5.58416 2.82955V2.79972C5.58416 2.48485 5.48473 2.24124 5.28587 2.06889C5.09032 1.89654 4.81191 1.81037 4.45064 1.81037C4.06948 1.81037 3.76622 1.89489 3.54084 2.06392C3.31546 2.22964 3.16631 2.43845 3.09339 2.69034L1.13459 2.53125C1.23402 2.06723 1.42957 1.66619 1.72124 1.32812C2.0129 0.986742 2.38909 0.724905 2.84979 0.542613C3.3138 0.357007 3.85073 0.264205 4.46058 0.264205C4.88482 0.264205 5.29084 0.31392 5.67862 0.413352C6.06972 0.512784 6.41608 0.666903 6.71768 0.87571C7.02261 1.08452 7.2629 1.35298 7.43857 1.68111C7.61423 2.00592 7.70206 2.39536 7.70206 2.84943V8H5.69354V6.94105H5.63388C5.51125 7.17969 5.34718 7.39015 5.14169 7.57244C4.9362 7.75142 4.68928 7.89228 4.40092 7.99503C4.11257 8.09446 3.77947 8.14418 3.40163 8.14418ZM4.00817 6.68253C4.31972 6.68253 4.59482 6.62121 4.83345 6.49858C5.07209 6.37263 5.25935 6.2036 5.39524 5.99148C5.53113 5.77936 5.59908 5.53906 5.59908 5.2706V4.46023C5.53279 4.50331 5.44164 4.54309 5.32564 4.57955C5.21295 4.61269 5.08535 4.64418 4.94283 4.67401C4.80031 4.70052 4.65779 4.72538 4.51527 4.74858C4.37275 4.76847 4.24349 4.78669 4.12749 4.80327C3.87891 4.83973 3.66181 4.89773 3.47621 4.97727C3.2906 5.05682 3.14643 5.16454 3.04368 5.30043C2.94093 5.433 2.88956 5.59872 2.88956 5.79759C2.88956 6.08594 2.99396 6.30634 3.20277 6.45881C3.41489 6.60795 3.68336 6.68253 4.00817 6.68253ZM11.5227 8.14418C11.0355 8.14418 10.6013 8.05966 10.2202 7.89062C9.83902 7.71828 9.53741 7.46473 9.31534 7.12997C9.09659 6.7919 8.98722 6.37098 8.98722 5.86719C8.98722 5.44295 9.0651 5.08665 9.22088 4.7983C9.37666 4.50994 9.58878 4.27794 9.85724 4.10227C10.1257 3.92661 10.4306 3.79403 10.772 3.70455C11.1167 3.61506 11.478 3.55208 11.8558 3.51562C12.3 3.46922 12.6579 3.42614 12.9297 3.38636C13.2015 3.34328 13.3987 3.2803 13.5213 3.19744C13.6439 3.11458 13.7053 2.99195 13.7053 2.82955V2.79972C13.7053 2.48485 13.6058 2.24124 13.407 2.06889C13.2114 1.89654 12.933 1.81037 12.5717 1.81037C12.1906 1.81037 11.8873 1.89489 11.6619 2.06392C11.4366 2.22964 11.2874 2.43845 11.2145 2.69034L9.25568 2.53125C9.35511 2.06723 9.55066 1.66619 9.84233 1.32812C10.134 0.986742 10.5102 0.724905 10.9709 0.542613C11.4349 0.357007 11.9718 0.264205 12.5817 0.264205C13.0059 0.264205 13.4119 0.31392 13.7997 0.413352C14.1908 0.512784 14.5372 0.666903 14.8388 0.87571C15.1437 1.08452 15.384 1.35298 15.5597 1.68111C15.7353 2.00592 15.8232 2.39536 15.8232 2.84943V8H13.8146V6.94105H13.755C13.6323 7.17969 13.4683 7.39015 13.2628 7.57244C13.0573 7.75142 12.8104 7.89228 12.522 7.99503C12.2337 8.09446 11.9006 8.14418 11.5227 8.14418ZM12.1293 6.68253C12.4408 6.68253 12.7159 6.62121 12.9545 6.49858C13.1932 6.37263 13.3804 6.2036 13.5163 5.99148C13.6522 5.77936 13.7202 5.53906 13.7202 5.2706V4.46023C13.6539 4.50331 13.5627 4.54309 13.4467 4.57955C13.334 4.61269 13.2064 4.64418 13.0639 4.67401C12.9214 4.70052 12.7789 4.72538 12.6364 4.74858C12.4938 4.76847 12.3646 4.78669 12.2486 4.80327C12 4.83973 11.7829 4.89773 11.5973 4.97727C11.4117 5.05682 11.2675 5.16454 11.1648 5.30043C11.062 5.433 11.0107 5.59872 11.0107 5.79759C11.0107 6.08594 11.1151 6.30634 11.3239 6.45881C11.536 6.60795 11.8045 6.68253 12.1293 6.68253Z" fill="black"/>
</svg>
