<svg fill="none" xmlns="http://www.w3.org/2000/svg" viewBox="0 0 18 19">
  <path d="M9 .4a9 9 0 1 1 0 18 9 9 0 0 1 0-18ZM8.2 2c-1.4.1-2.8.7-3.9 1.5l1.8 1.8a.8.8 0 0 1-1 1L3.2 4.7a7.5 7.5 0 0 0-1.8 4h2.6a.8.8 0 0 1 0 1.6H1.5c.2 1.4.8 2.8 1.6 3.9L5 12.2c.3-.3.8-.3 1 0l2.5-2.4-.3-.2V2Z" fill="url(#a)"/>
  <defs>
    <linearGradient id="a" x1="3" y1="15.9" x2="15.5" y2="3" gradientUnits="userSpaceOnUse">
      <stop stop-color="#743EE4"/>
      <stop offset="1" stop-color="#5E8FF3"/>
    </linearGradient>
  </defs>
</svg>